<svg width="296" height="178" viewBox="0 0 296 178" fill="none" xmlns="http://www.w3.org/2000/svg">
<path d="M41.083 33.9105C45.8617 33.9105 50.0857 35.0198 53.755 37.2385C57.4243 39.3718 60.3257 42.3585 62.459 46.1985C64.5923 50.0385 65.659 54.4332 65.659 59.3825C65.659 64.3318 64.5923 68.8118 62.459 72.8225C60.3257 76.7478 57.4243 79.8625 53.755 82.1665C50.0857 84.4705 45.8617 85.6225 41.083 85.6225H13.947L14.587 84.3425V119.67C14.587 120.694 14.203 121.59 13.435 122.358C12.667 123.126 11.771 123.51 10.747 123.51C9.55233 123.51 8.61367 123.126 7.931 122.358C7.24833 121.59 6.907 120.694 6.907 119.67V37.7505C6.907 36.7265 7.291 35.8305 8.059 35.0625C8.827 34.2945 9.723 33.9105 10.747 33.9105H41.083ZM41.083 78.1985C44.411 78.1985 47.3123 77.3878 49.787 75.7665C52.2617 74.0598 54.1817 71.7985 55.547 68.9825C56.9977 66.0812 57.723 62.8812 57.723 59.3825C57.723 55.8838 56.9977 52.8118 55.547 50.1665C54.1817 47.4358 52.2617 45.3025 49.787 43.7665C47.3123 42.2305 44.411 41.4625 41.083 41.4625H13.947L14.587 40.3105V78.9665L13.819 78.1985H41.083Z" fill="#A9E0C9"/>
<path d="M218.128 40.5665C219.152 41.2492 219.749 42.1452 219.92 43.2545C220.09 44.2785 219.834 45.3025 219.152 46.3265C218.554 47.0945 217.786 47.5212 216.848 47.6065C215.909 47.6918 215.013 47.5212 214.16 47.0945C210.917 44.9612 207.418 43.2972 203.664 42.1025C199.994 40.9078 196.026 40.3105 191.76 40.3105C186.554 40.3105 181.69 41.2492 177.168 43.1265C172.73 44.9185 168.848 47.5638 165.52 51.0625C162.192 54.4758 159.589 58.5292 157.712 63.2225C155.92 67.9158 155.024 73.0785 155.024 78.7105C155.024 84.5132 155.962 89.8038 157.84 94.5825C159.717 99.2758 162.32 103.329 165.648 106.742C169.061 110.156 172.986 112.758 177.424 114.55C181.861 116.342 186.64 117.238 191.76 117.238C195.941 117.238 199.866 116.641 203.536 115.446C207.29 114.252 210.789 112.63 214.032 110.582C214.885 110.07 215.781 109.9 216.72 110.07C217.744 110.156 218.554 110.625 219.152 111.478C219.92 112.417 220.176 113.441 219.92 114.55C219.749 115.574 219.194 116.385 218.256 116.982C216.122 118.348 213.605 119.628 210.704 120.822C207.802 122.017 204.73 122.956 201.488 123.638C198.245 124.406 195.002 124.79 191.76 124.79C185.616 124.79 179.856 123.681 174.479 121.462C169.104 119.244 164.325 116.129 160.144 112.118C155.962 108.022 152.677 103.158 150.288 97.5265C147.984 91.8945 146.832 85.6225 146.832 78.7105C146.832 72.0545 147.984 65.9532 150.288 60.4065C152.592 54.7745 155.792 49.9105 159.888 45.8145C163.984 41.7185 168.762 38.5185 174.224 36.2145C179.685 33.9105 185.53 32.7585 191.76 32.7585C196.624 32.7585 201.317 33.4412 205.84 34.8065C210.362 36.1718 214.458 38.0918 218.128 40.5665Z" fill="white"/>
<path d="M230.549 49.1724C230.549 46.7831 231.231 44.5218 232.597 42.3884C233.962 40.2551 235.626 38.5058 237.589 37.1404C239.551 35.6898 241.471 34.9644 243.349 34.9644C244.031 34.9644 244.671 35.1778 245.269 35.6044C245.866 35.9458 246.165 36.7138 246.165 37.9084C246.165 39.1031 245.781 39.7858 245.013 39.9564C244.33 40.1271 243.306 40.5111 241.941 41.1084C240.575 41.8764 239.509 42.7724 238.741 43.7964C237.973 44.8204 237.589 45.9724 237.589 47.2524C237.589 48.3618 237.887 49.2578 238.485 49.9404C239.167 50.5378 239.935 50.8364 240.789 50.8364C241.386 50.8364 241.983 50.7511 242.581 50.5804C243.263 50.3244 243.775 50.0258 244.117 49.6844C244.714 50.1111 245.141 50.6231 245.397 51.2204C245.653 51.7324 245.781 52.3724 245.781 53.1404C245.695 54.5058 244.885 55.7431 243.349 56.8524C241.898 57.8764 240.277 58.3884 238.485 58.3884C236.181 58.3884 234.261 57.4498 232.725 55.5724C231.274 53.6951 230.549 51.5618 230.549 49.1724Z" fill="#A9E0C9"/>
<path d="M260.899 122.15C257.657 122.193 254.841 121.681 252.451 120.614C250.062 119.548 247.779 117.948 245.603 115.814C245.39 115.644 245.198 115.43 245.027 115.174C244.899 114.918 244.835 114.62 244.835 114.278C244.835 113.766 245.027 113.297 245.411 112.87C245.838 112.444 246.307 112.23 246.819 112.23C247.331 112.23 247.801 112.444 248.227 112.87C249.891 114.662 251.769 116.028 253.859 116.966C255.993 117.905 258.275 118.374 260.707 118.374C262.755 118.374 264.569 118.054 266.147 117.414C267.769 116.774 269.049 115.857 269.987 114.662C270.926 113.468 271.395 112.081 271.395 110.502C271.395 108.54 270.862 106.961 269.795 105.766C268.729 104.529 267.321 103.526 265.571 102.758C263.822 101.948 261.881 101.222 259.747 100.582C257.998 100.07 256.334 99.4945 254.755 98.8545C253.177 98.1718 251.769 97.3612 250.531 96.4225C249.294 95.4412 248.334 94.2465 247.651 92.8385C246.969 91.4305 246.627 89.7238 246.627 87.7185C246.627 85.4572 247.225 83.4518 248.419 81.7025C249.614 79.9532 251.299 78.5878 253.475 77.6065C255.694 76.5825 258.254 76.0705 261.155 76.0705C263.673 76.0705 266.083 76.4972 268.387 77.3505C270.734 78.2038 272.59 79.4625 273.955 81.1265C274.595 81.8092 274.915 82.4278 274.915 82.9825C274.915 83.4092 274.702 83.8358 274.275 84.2625C273.849 84.6892 273.379 84.9025 272.867 84.9025C272.441 84.9025 272.078 84.7532 271.779 84.4545C271.054 83.5585 270.137 82.7692 269.027 82.0865C267.918 81.3612 266.681 80.8065 265.315 80.4225C263.993 80.0385 262.606 79.8465 261.155 79.8465C259.15 79.8465 257.337 80.1665 255.715 80.8065C254.137 81.4038 252.878 82.2785 251.939 83.4305C251.043 84.5825 250.595 85.9692 250.595 87.5905C250.595 89.3825 251.107 90.8545 252.131 92.0065C253.155 93.1585 254.499 94.1185 256.163 94.8865C257.827 95.6118 259.598 96.2945 261.475 96.9345C263.31 97.4465 265.059 98.0438 266.723 98.7265C268.43 99.3665 269.923 100.177 271.203 101.158C272.526 102.14 273.55 103.377 274.275 104.87C275.043 106.364 275.427 108.241 275.427 110.502C275.427 112.678 274.809 114.641 273.571 116.39C272.334 118.14 270.627 119.526 268.451 120.55C266.318 121.574 263.801 122.108 260.899 122.15Z" fill="#A9E0C9"/>
<path d="M13.96 150.22L7.48 165.46C7.34 165.84 7.12 166.14 6.82 166.36C6.54 166.56 6.23 166.66 5.89 166.66C5.35 166.66 4.95 166.51 4.69 166.21C4.43 165.91 4.3 165.54 4.3 165.1C4.3 164.92 4.33 164.73 4.39 164.53L11.86 146.59C12.02 146.19 12.26 145.88 12.58 145.66C12.92 145.44 13.28 145.35 13.66 145.39C14.02 145.39 14.35 145.5 14.65 145.72C14.97 145.92 15.2 146.21 15.34 146.59L22.72 164.17C22.82 164.43 22.87 164.67 22.87 164.89C22.87 165.43 22.69 165.86 22.33 166.18C21.99 166.5 21.61 166.66 21.19 166.66C20.83 166.66 20.5 166.55 20.2 166.33C19.92 166.11 19.7 165.81 19.54 165.43L13.09 150.4L13.96 150.22ZM8.41 161.8L10.06 158.35H18.16L18.73 161.8H8.41Z" fill="#F9945D"/>
<path d="M29.0102 164.68C29.0102 165.2 28.8302 165.64 28.4702 166C28.1302 166.34 27.7002 166.51 27.1802 166.51C26.6802 166.51 26.2602 166.34 25.9202 166C25.5802 165.64 25.4102 165.2 25.4102 164.68V146.14C25.4102 145.62 25.5802 145.19 25.9202 144.85C26.2802 144.49 26.7202 144.31 27.2402 144.31C27.7602 144.31 28.1802 144.49 28.5002 144.85C28.8402 145.19 29.0102 145.62 29.0102 146.14V164.68ZM44.9596 150.46C45.4796 150.46 45.9096 150.64 46.2496 151C46.5896 151.34 46.7596 151.77 46.7596 152.29V159.91C46.7596 162.03 46.1696 163.71 44.9896 164.95C43.8096 166.19 42.1096 166.81 39.8896 166.81C37.6696 166.81 35.9696 166.19 34.7896 164.95C33.6296 163.71 33.0496 162.03 33.0496 159.91V152.29C33.0496 151.77 33.2196 151.34 33.5596 151C33.8996 150.64 34.3296 150.46 34.8496 150.46C35.3696 150.46 35.7996 150.64 36.1396 151C36.4796 151.34 36.6496 151.77 36.6496 152.29V159.91C36.6496 161.13 36.9196 162.04 37.4596 162.64C37.9996 163.22 38.8096 163.51 39.8896 163.51C40.9896 163.51 41.8096 163.22 42.3496 162.64C42.8896 162.04 43.1596 161.13 43.1596 159.91V152.29C43.1596 151.77 43.3296 151.34 43.6696 151C44.0096 150.64 44.4396 150.46 44.9596 150.46ZM59.087 150.16C60.687 150.16 61.867 150.55 62.627 151.33C63.387 152.09 63.887 153.08 64.127 154.3L63.617 154.03L63.857 153.55C64.097 153.09 64.467 152.6 64.967 152.08C65.467 151.54 66.067 151.09 66.767 150.73C67.487 150.35 68.287 150.16 69.167 150.16C70.607 150.16 71.697 150.47 72.437 151.09C73.197 151.71 73.717 152.54 73.997 153.58C74.277 154.6 74.417 155.74 74.417 157V164.68C74.417 165.2 74.247 165.64 73.907 166C73.567 166.34 73.137 166.51 72.617 166.51C72.097 166.51 71.667 166.34 71.327 166C70.987 165.64 70.817 165.2 70.817 164.68V157C70.817 156.34 70.737 155.75 70.577 155.23C70.417 154.69 70.127 154.26 69.707 153.94C69.287 153.62 68.687 153.46 67.907 153.46C67.147 153.46 66.497 153.62 65.957 153.94C65.417 154.26 65.007 154.69 64.727 155.23C64.467 155.75 64.337 156.34 64.337 157V164.68C64.337 165.2 64.167 165.64 63.827 166C63.487 166.34 63.057 166.51 62.537 166.51C62.017 166.51 61.587 166.34 61.247 166C60.907 165.64 60.737 165.2 60.737 164.68V157C60.737 156.34 60.657 155.75 60.497 155.23C60.337 154.69 60.047 154.26 59.627 153.94C59.207 153.62 58.607 153.46 57.827 153.46C57.067 153.46 56.417 153.62 55.877 153.94C55.337 154.26 54.927 154.69 54.647 155.23C54.387 155.75 54.257 156.34 54.257 157V164.68C54.257 165.2 54.087 165.64 53.747 166C53.407 166.34 52.977 166.51 52.457 166.51C51.937 166.51 51.507 166.34 51.167 166C50.827 165.64 50.657 165.2 50.657 164.68V152.29C50.657 151.77 50.827 151.34 51.167 151C51.507 150.64 51.937 150.46 52.457 150.46C52.977 150.46 53.407 150.64 53.747 151C54.087 151.34 54.257 151.77 54.257 152.29V153.58L53.807 153.49C53.987 153.15 54.237 152.79 54.557 152.41C54.877 152.01 55.267 151.64 55.727 151.3C56.187 150.96 56.697 150.69 57.257 150.49C57.817 150.27 58.427 150.16 59.087 150.16ZM86.8933 150.16C88.3733 150.16 89.4933 150.47 90.2533 151.09C91.0333 151.71 91.5633 152.54 91.8433 153.58C92.1433 154.6 92.2933 155.74 92.2933 157V164.68C92.2933 165.2 92.1233 165.64 91.7833 166C91.4433 166.34 91.0133 166.51 90.4933 166.51C89.9733 166.51 89.5433 166.34 89.2033 166C88.8633 165.64 88.6933 165.2 88.6933 164.68V157C88.6933 156.34 88.6033 155.75 88.4233 155.23C88.2633 154.69 87.9633 154.26 87.5233 153.94C87.0833 153.62 86.4533 153.46 85.6333 153.46C84.8333 153.46 84.1533 153.62 83.5933 153.94C83.0533 154.26 82.6333 154.69 82.3333 155.23C82.0533 155.75 81.9133 156.34 81.9133 157V164.68C81.9133 165.2 81.7433 165.64 81.4033 166C81.0633 166.34 80.6333 166.51 80.1133 166.51C79.5933 166.51 79.1633 166.34 78.8233 166C78.4833 165.64 78.3133 165.2 78.3133 164.68V152.29C78.3133 151.77 78.4833 151.34 78.8233 151C79.1633 150.64 79.5933 150.46 80.1133 150.46C80.6333 150.46 81.0633 150.64 81.4033 151C81.7433 151.34 81.9133 151.77 81.9133 152.29V153.58L81.4633 153.49C81.6433 153.15 81.9033 152.79 82.2433 152.41C82.5833 152.01 82.9833 151.64 83.4433 151.3C83.9033 150.96 84.4233 150.69 85.0033 150.49C85.5833 150.27 86.2133 150.16 86.8933 150.16ZM99.5744 164.68C99.5744 165.2 99.4044 165.64 99.0644 166C98.7244 166.34 98.2944 166.51 97.7744 166.51C97.2544 166.51 96.8244 166.34 96.4844 166C96.1444 165.64 95.9744 165.2 95.9744 164.68V152.29C95.9744 151.77 96.1444 151.34 96.4844 151C96.8244 150.64 97.2544 150.46 97.7744 150.46C98.2944 150.46 98.7244 150.64 99.0644 151C99.4044 151.34 99.5744 151.77 99.5744 152.29V164.68ZM97.7444 148.51C97.0644 148.51 96.5844 148.4 96.3044 148.18C96.0244 147.96 95.8844 147.57 95.8844 147.01V146.44C95.8844 145.86 96.0344 145.47 96.3344 145.27C96.6544 145.05 97.1344 144.94 97.7744 144.94C98.4744 144.94 98.9644 145.05 99.2444 145.27C99.5244 145.49 99.6644 145.88 99.6644 146.44V147.01C99.6644 147.59 99.5144 147.99 99.2144 148.21C98.9144 148.41 98.4244 148.51 97.7444 148.51Z" fill="#A9E0C9"/>
<path d="M127.222 146.53C127.742 146.79 128.042 147.2 128.122 147.76C128.222 148.32 128.082 148.83 127.702 149.29C127.442 149.65 127.102 149.85 126.682 149.89C126.282 149.93 125.872 149.85 125.452 149.65C124.972 149.43 124.462 149.26 123.922 149.14C123.402 149.02 122.852 148.96 122.272 148.96C121.192 148.96 120.222 149.13 119.362 149.47C118.522 149.81 117.802 150.3 117.202 150.94C116.602 151.56 116.142 152.3 115.822 153.16C115.522 154.02 115.372 154.97 115.372 156.01C115.372 157.23 115.542 158.29 115.882 159.19C116.242 160.09 116.732 160.84 117.352 161.44C117.972 162.04 118.702 162.49 119.542 162.79C120.382 163.07 121.292 163.21 122.272 163.21C122.812 163.21 123.352 163.16 123.892 163.06C124.432 162.96 124.952 162.78 125.452 162.52C125.872 162.32 126.282 162.25 126.682 162.31C127.102 162.37 127.452 162.58 127.732 162.94C128.132 163.44 128.272 163.96 128.152 164.5C128.052 165.02 127.752 165.4 127.252 165.64C126.732 165.9 126.192 166.12 125.632 166.3C125.092 166.46 124.542 166.58 123.982 166.66C123.422 166.76 122.852 166.81 122.272 166.81C120.832 166.81 119.462 166.58 118.162 166.12C116.882 165.66 115.732 164.98 114.712 164.08C113.712 163.18 112.922 162.06 112.342 160.72C111.762 159.36 111.472 157.79 111.472 156.01C111.472 154.47 111.732 153.05 112.252 151.75C112.792 150.45 113.542 149.33 114.502 148.39C115.482 147.43 116.632 146.69 117.952 146.17C119.272 145.63 120.712 145.36 122.272 145.36C123.152 145.36 124.012 145.46 124.852 145.66C125.692 145.86 126.482 146.15 127.222 146.53Z" fill="white"/>
<path d="M146.601 158.5C146.601 160.14 146.231 161.59 145.491 162.85C144.771 164.09 143.791 165.06 142.551 165.76C141.331 166.46 139.961 166.81 138.441 166.81C136.921 166.81 135.541 166.46 134.301 165.76C133.081 165.06 132.101 164.09 131.361 162.85C130.641 161.59 130.281 160.14 130.281 158.5C130.281 156.86 130.641 155.42 131.361 154.18C132.101 152.92 133.081 151.94 134.301 151.24C135.541 150.52 136.921 150.16 138.441 150.16C139.961 150.16 141.331 150.52 142.551 151.24C143.791 151.94 144.771 152.92 145.491 154.18C146.231 155.42 146.601 156.86 146.601 158.5ZM143.001 158.5C143.001 157.48 142.791 156.6 142.371 155.86C141.971 155.1 141.421 154.51 140.721 154.09C140.041 153.67 139.281 153.46 138.441 153.46C137.601 153.46 136.831 153.67 136.131 154.09C135.451 154.51 134.901 155.1 134.481 155.86C134.081 156.6 133.881 157.48 133.881 158.5C133.881 159.5 134.081 160.38 134.481 161.14C134.901 161.88 135.451 162.46 136.131 162.88C136.831 163.3 137.601 163.51 138.441 163.51C139.281 163.51 140.041 163.3 140.721 162.88C141.421 162.46 141.971 161.88 142.371 161.14C142.791 160.38 143.001 159.5 143.001 158.5ZM153.652 164.68C153.652 165.2 153.472 165.64 153.112 166C152.772 166.34 152.342 166.51 151.822 166.51C151.322 166.51 150.902 166.34 150.562 166C150.222 165.64 150.052 165.2 150.052 164.68V146.14C150.052 145.62 150.222 145.19 150.562 144.85C150.922 144.49 151.362 144.31 151.882 144.31C152.402 144.31 152.822 144.49 153.142 144.85C153.482 145.19 153.652 145.62 153.652 146.14V164.68ZM173.115 158.5C173.115 160.14 172.745 161.59 172.005 162.85C171.285 164.09 170.305 165.06 169.065 165.76C167.845 166.46 166.475 166.81 164.955 166.81C163.435 166.81 162.055 166.46 160.815 165.76C159.595 165.06 158.615 164.09 157.875 162.85C157.155 161.59 156.795 160.14 156.795 158.5C156.795 156.86 157.155 155.42 157.875 154.18C158.615 152.92 159.595 151.94 160.815 151.24C162.055 150.52 163.435 150.16 164.955 150.16C166.475 150.16 167.845 150.52 169.065 151.24C170.305 151.94 171.285 152.92 172.005 154.18C172.745 155.42 173.115 156.86 173.115 158.5ZM169.515 158.5C169.515 157.48 169.305 156.6 168.885 155.86C168.485 155.1 167.935 154.51 167.235 154.09C166.555 153.67 165.795 153.46 164.955 153.46C164.115 153.46 163.345 153.67 162.645 154.09C161.965 154.51 161.415 155.1 160.995 155.86C160.595 156.6 160.395 157.48 160.395 158.5C160.395 159.5 160.595 160.38 160.995 161.14C161.415 161.88 161.965 162.46 162.645 162.88C163.345 163.3 164.115 163.51 164.955 163.51C165.795 163.51 166.555 163.3 167.235 162.88C167.935 162.46 168.485 161.88 168.885 161.14C169.305 160.38 169.515 159.5 169.515 158.5ZM184.695 150.16C186.295 150.16 187.475 150.55 188.235 151.33C188.995 152.09 189.495 153.08 189.735 154.3L189.225 154.03L189.465 153.55C189.705 153.09 190.075 152.6 190.575 152.08C191.075 151.54 191.675 151.09 192.375 150.73C193.095 150.35 193.895 150.16 194.775 150.16C196.215 150.16 197.305 150.47 198.045 151.09C198.805 151.71 199.325 152.54 199.605 153.58C199.885 154.6 200.025 155.74 200.025 157V164.68C200.025 165.2 199.855 165.64 199.515 166C199.175 166.34 198.745 166.51 198.225 166.51C197.705 166.51 197.275 166.34 196.935 166C196.595 165.64 196.425 165.2 196.425 164.68V157C196.425 156.34 196.345 155.75 196.185 155.23C196.025 154.69 195.735 154.26 195.315 153.94C194.895 153.62 194.295 153.46 193.515 153.46C192.755 153.46 192.105 153.62 191.565 153.94C191.025 154.26 190.615 154.69 190.335 155.23C190.075 155.75 189.945 156.34 189.945 157V164.68C189.945 165.2 189.775 165.64 189.435 166C189.095 166.34 188.665 166.51 188.145 166.51C187.625 166.51 187.195 166.34 186.855 166C186.515 165.64 186.345 165.2 186.345 164.68V157C186.345 156.34 186.265 155.75 186.105 155.23C185.945 154.69 185.655 154.26 185.235 153.94C184.815 153.62 184.215 153.46 183.435 153.46C182.675 153.46 182.025 153.62 181.485 153.94C180.945 154.26 180.535 154.69 180.255 155.23C179.995 155.75 179.865 156.34 179.865 157V164.68C179.865 165.2 179.695 165.64 179.355 166C179.015 166.34 178.585 166.51 178.065 166.51C177.545 166.51 177.115 166.34 176.775 166C176.435 165.64 176.265 165.2 176.265 164.68V152.29C176.265 151.77 176.435 151.34 176.775 151C177.115 150.64 177.545 150.46 178.065 150.46C178.585 150.46 179.015 150.64 179.355 151C179.695 151.34 179.865 151.77 179.865 152.29V153.58L179.415 153.49C179.595 153.15 179.845 152.79 180.165 152.41C180.485 152.01 180.875 151.64 181.335 151.3C181.795 150.96 182.305 150.69 182.865 150.49C183.425 150.27 184.035 150.16 184.695 150.16ZM212.232 150.16C213.632 150.16 214.882 150.52 215.982 151.24C217.102 151.94 217.982 152.91 218.622 154.15C219.282 155.39 219.612 156.83 219.612 158.47C219.612 160.11 219.282 161.56 218.622 162.82C217.982 164.06 217.112 165.04 216.012 165.76C214.932 166.46 213.712 166.81 212.352 166.81C211.552 166.81 210.802 166.68 210.102 166.42C209.402 166.16 208.782 165.83 208.242 165.43C207.722 165.03 207.312 164.63 207.012 164.23C206.732 163.81 206.592 163.46 206.592 163.18L207.522 162.79V164.98C207.522 165.5 207.352 165.94 207.012 166.3C206.672 166.64 206.242 166.81 205.722 166.81C205.202 166.81 204.772 166.64 204.432 166.3C204.092 165.96 203.922 165.52 203.922 164.98V146.14C203.922 145.62 204.092 145.19 204.432 144.85C204.772 144.49 205.202 144.31 205.722 144.31C206.242 144.31 206.672 144.49 207.012 144.85C207.352 145.19 207.522 145.62 207.522 146.14V153.76L207.012 153.49C207.012 153.23 207.152 152.92 207.432 152.56C207.712 152.18 208.092 151.81 208.572 151.45C209.052 151.07 209.602 150.76 210.222 150.52C210.862 150.28 211.532 150.16 212.232 150.16ZM211.782 153.46C210.902 153.46 210.132 153.68 209.472 154.12C208.812 154.56 208.292 155.16 207.912 155.92C207.552 156.66 207.372 157.51 207.372 158.47C207.372 159.41 207.552 160.27 207.912 161.05C208.292 161.81 208.812 162.41 209.472 162.85C210.132 163.29 210.902 163.51 211.782 163.51C212.662 163.51 213.422 163.29 214.062 162.85C214.722 162.41 215.232 161.81 215.592 161.05C215.972 160.27 216.162 159.41 216.162 158.47C216.162 157.51 215.972 156.66 215.592 155.92C215.232 155.16 214.722 154.56 214.062 154.12C213.422 153.68 212.662 153.46 211.782 153.46ZM231.07 150.16C232.47 150.16 233.72 150.52 234.82 151.24C235.94 151.94 236.82 152.91 237.46 154.15C238.12 155.39 238.45 156.83 238.45 158.47C238.45 160.11 238.12 161.56 237.46 162.82C236.82 164.06 235.95 165.04 234.85 165.76C233.77 166.46 232.55 166.81 231.19 166.81C230.39 166.81 229.64 166.68 228.94 166.42C228.24 166.16 227.62 165.83 227.08 165.43C226.56 165.03 226.15 164.63 225.85 164.23C225.57 163.81 225.43 163.46 225.43 163.18L226.36 162.79V164.98C226.36 165.5 226.19 165.94 225.85 166.3C225.51 166.64 225.08 166.81 224.56 166.81C224.04 166.81 223.61 166.64 223.27 166.3C222.93 165.96 222.76 165.52 222.76 164.98V146.14C222.76 145.62 222.93 145.19 223.27 144.85C223.61 144.49 224.04 144.31 224.56 144.31C225.08 144.31 225.51 144.49 225.85 144.85C226.19 145.19 226.36 145.62 226.36 146.14V153.76L225.85 153.49C225.85 153.23 225.99 152.92 226.27 152.56C226.55 152.18 226.93 151.81 227.41 151.45C227.89 151.07 228.44 150.76 229.06 150.52C229.7 150.28 230.37 150.16 231.07 150.16ZM230.62 153.46C229.74 153.46 228.97 153.68 228.31 154.12C227.65 154.56 227.13 155.16 226.75 155.92C226.39 156.66 226.21 157.51 226.21 158.47C226.21 159.41 226.39 160.27 226.75 161.05C227.13 161.81 227.65 162.41 228.31 162.85C228.97 163.29 229.74 163.51 230.62 163.51C231.5 163.51 232.26 163.29 232.9 162.85C233.56 162.41 234.07 161.81 234.43 161.05C234.81 160.27 235 159.41 235 158.47C235 157.51 234.81 156.66 234.43 155.92C234.07 155.16 233.56 154.56 232.9 154.12C232.26 153.68 231.5 153.46 230.62 153.46ZM253.507 150.46C254.027 150.46 254.457 150.64 254.797 151C255.137 151.34 255.307 151.77 255.307 152.29V159.91C255.307 162.03 254.717 163.71 253.537 164.95C252.357 166.19 250.657 166.81 248.437 166.81C246.217 166.81 244.517 166.19 243.337 164.95C242.177 163.71 241.597 162.03 241.597 159.91V152.29C241.597 151.77 241.767 151.34 242.107 151C242.447 150.64 242.877 150.46 243.397 150.46C243.917 150.46 244.347 150.64 244.687 151C245.027 151.34 245.197 151.77 245.197 152.29V159.91C245.197 161.13 245.467 162.04 246.007 162.64C246.547 163.22 247.357 163.51 248.437 163.51C249.537 163.51 250.357 163.22 250.897 162.64C251.437 162.04 251.707 161.13 251.707 159.91V152.29C251.707 151.77 251.877 151.34 252.217 151C252.557 150.64 252.987 150.46 253.507 150.46ZM258.275 164.02C258.075 163.74 257.985 163.38 258.005 162.94C258.025 162.5 258.285 162.12 258.785 161.8C259.105 161.6 259.445 161.52 259.805 161.56C260.165 161.58 260.515 161.76 260.855 162.1C261.435 162.68 262.045 163.13 262.685 163.45C263.325 163.77 264.125 163.93 265.085 163.93C265.385 163.91 265.715 163.87 266.075 163.81C266.435 163.73 266.745 163.57 267.005 163.33C267.285 163.07 267.425 162.68 267.425 162.16C267.425 161.72 267.275 161.37 266.975 161.11C266.675 160.85 266.275 160.63 265.775 160.45C265.295 160.27 264.755 160.1 264.155 159.94C263.535 159.76 262.895 159.56 262.235 159.34C261.595 159.12 261.005 158.84 260.465 158.5C259.925 158.14 259.485 157.67 259.145 157.09C258.805 156.51 258.635 155.78 258.635 154.9C258.635 153.9 258.915 153.05 259.475 152.35C260.035 151.65 260.755 151.11 261.635 150.73C262.535 150.35 263.475 150.16 264.455 150.16C265.075 150.16 265.725 150.24 266.405 150.4C267.085 150.54 267.735 150.78 268.355 151.12C268.975 151.44 269.495 151.87 269.915 152.41C270.135 152.71 270.265 153.07 270.305 153.49C270.345 153.91 270.155 154.29 269.735 154.63C269.435 154.87 269.085 154.98 268.685 154.96C268.285 154.92 267.955 154.78 267.695 154.54C267.355 154.1 266.895 153.75 266.315 153.49C265.755 153.23 265.105 153.1 264.365 153.1C264.065 153.1 263.735 153.14 263.375 153.22C263.035 153.28 262.735 153.43 262.475 153.67C262.215 153.89 262.085 154.25 262.085 154.75C262.085 155.21 262.235 155.58 262.535 155.86C262.835 156.12 263.235 156.34 263.735 156.52C264.255 156.68 264.805 156.84 265.385 157C265.985 157.16 266.595 157.35 267.215 157.57C267.835 157.79 268.405 158.08 268.925 158.44C269.445 158.8 269.865 159.27 270.185 159.85C270.505 160.41 270.665 161.13 270.665 162.01C270.665 163.03 270.365 163.9 269.765 164.62C269.165 165.34 268.415 165.89 267.515 166.27C266.615 166.63 265.695 166.81 264.755 166.81C263.575 166.81 262.395 166.61 261.215 166.21C260.035 165.79 259.055 165.06 258.275 164.02Z" fill="#A9E0C9"/>
<path d="M87.0809 33.3364C84.7612 35.993 84.5163 38.8785 83.9777 42.364C83.4391 45.8495 84.4372 49.147 85.8468 52.3799C87.2564 55.6128 89.5552 58.3789 92.4756 60.3562C95.3961 62.3335 98.818 63.4407 102.343 63.5488C105.868 63.657 109.352 62.7618 112.388 60.9673C115.424 59.1728 118.483 56.7888 120.088 53.6485C121.693 50.5081 122.063 49.981 122.627 42.9282C122.303 39.4163 121.646 36.1303 119.494 33.3364" stroke="#F9945D" stroke-width="6"/>
<path d="M135 128.51C135 120.106 134.172 111.784 132.564 104.019C130.956 96.2539 128.599 89.1986 125.627 83.2557C122.656 77.3127 119.128 72.5985 115.246 69.3822C111.363 66.1659 107.202 64.5105 103 64.5105C98.7977 64.5105 94.6365 66.1659 90.7541 69.3822C86.8717 72.5985 83.3441 77.3127 80.3726 83.2557C77.4011 89.1986 75.044 96.2539 73.4359 104.019C71.8277 111.784 71 120.106 71 128.51M71.5 129C84.8333 109.421 115.9 70.088 133.5 69.3822" stroke="#F9945D" stroke-width="6" stroke-linecap="round"/>
<path d="M83.7996 21.0493L73.9998 16.0664L101.533 3L129.999 16.0664L122.065 19.9679M83.7996 21.0493L101.533 30.0661L122.065 19.9679M83.7996 21.0493V31.466C88.4661 39.8658 115.505 41.2109 122.065 30.67V19.9679" stroke="white" stroke-width="4"/>
<path d="M103 17C108.133 17.7778 113.964 21.0517 114.337 24.4116C114.804 28.6115 114.337 37.9446 114.337 39.3446M114.337 39.3446C112.937 39.189 112.004 42.1445 112.004 44.4778C112.004 46.8111 114.337 48.6777 114.337 51.4777C115.581 50.2332 117.604 46.8111 117.604 44.4778C117.604 42.1445 116.204 39.3446 114.337 39.3446Z" stroke="white" stroke-width="2"/>
<path d="M135 128.51C135 120.106 134.172 111.784 132.564 104.019C130.956 96.2539 128.599 89.1986 125.627 83.2557C122.656 77.3127 119.128 72.5985 115.246 69.3822C111.363 66.1659 107.202 64.5105 103 64.5105C98.7977 64.5105 94.6365 66.1659 90.7541 69.3822C86.8717 72.5985 83.3441 77.3127 80.3726 83.2557C77.4011 89.1986 75.044 96.2539 73.4359 104.019C71.8277 111.784 71 120.106 71 128.51M71.5 129C84.8333 109.421 115.9 70.088 133.5 69.3822" stroke="#F9945D" stroke-width="6" stroke-linecap="round"/>
</svg>
